<?xml version="1.0" standalone="no"?>
<!DOCTYPE svg PUBLIC "-//W3C//DTD SVG 20010904//EN"
 "http://www.w3.org/TR/2001/REC-SVG-20010904/DTD/svg10.dtd">
<svg version="1.0" xmlns="http://www.w3.org/2000/svg"
 width="700.000000pt" height="700.000000pt" viewBox="0 0 700.000000 700.000000"
 preserveAspectRatio="xMidYMid meet">
<metadata>
Created by potrace 1.11, written by Peter Selinger 2001-2013
</metadata>
<g transform="translate(0.000000,700.000000) scale(0.100000,-0.100000)"
fill="#000000" stroke="none">
<path d="M560 6985 c-281 -56 -507 -291 -550 -571 -7 -48 -10 -973 -8 -2959
l3 -2890 29 -84 c78 -222 252 -388 481 -457 57 -18 184 -19 2950 -22 2612 -2
2898 -1 2970 13 282 57 493 268 550 551 14 71 15 356 13 2969 -3 2740 -4 2893
-21 2949 -72 241 -252 420 -495 494 -53 16 -246 17 -2957 19 -2347 1 -2912 -1
-2965 -12z m2484 -2340 c364 -579 432 -681 442 -667 6 9 199 317 428 685 l417
667 276 0 c216 0 274 -3 270 -12 -3 -7 -255 -406 -562 -887 l-556 -873 28 -47
c16 -25 275 -429 576 -898 301 -469 547 -855 547 -858 0 -3 -125 -5 -277 -5
l-278 0 -436 693 c-240 380 -440 692 -444 692 -5 0 -205 -310 -446 -690 l-437
-690 -281 -3 -281 -2 43 67 c24 38 282 439 574 893 291 454 533 830 537 837 4
7 -221 369 -535 860 -298 466 -552 865 -566 886 l-23 37 277 0 278 -1 429
-684z"/>
</g>
</svg>
