<svg viewBox="0 0 200 200" xmlns="http://www.w3.org/2000/svg">
  <path fill="#50C878" d="M27.5,-47.2C37.3,-41.9,48.2,-38,60.4,-30.4C72.6,-22.7,86,-11.4,85.2,-0.5C84.4,10.4,69.3,20.8,58.1,30.2C46.9,39.6,39.7,47.9,30.7,55.2C21.6,62.6,10.8,68.9,0.3,68.3C-10.2,67.8,-20.3,60.3,-28.6,52.6C-36.9,44.8,-43.4,36.8,-51.3,28C-59.2,19.2,-68.6,9.6,-71,-1.4C-73.3,-12.3,-68.7,-24.6,-62.4,-36.3C-56.1,-48,-48.3,-59,-37.6,-63.9C-27,-68.8,-13.5,-67.5,-2.3,-63.4C8.8,-59.4,17.6,-52.6,27.5,-47.2Z" transform="translate(100 100)" />
</svg>
