<svg viewBox="0 0 200 200" xmlns="http://www.w3.org/2000/svg">
  <path fill="#50C878" d="M31.2,-55.4C39.5,-49.4,44.4,-38.9,49.8,-28.9C55.2,-19,61,-9.5,64.1,1.8C67.2,13.1,67.5,26.1,61.1,34.2C54.6,42.3,41.3,45.5,30,48.5C18.7,51.5,9.4,54.3,-3.1,59.7C-15.6,65.1,-31.3,73.2,-38.5,67.9C-45.8,62.5,-44.7,43.9,-51.9,30.3C-59.1,16.8,-74.5,8.4,-75.1,-0.3C-75.7,-9.1,-61.4,-18.1,-52.1,-28.1C-42.9,-38.1,-38.8,-49.1,-31,-55.4C-23.1,-61.6,-11.6,-63,0,-63C11.5,-62.9,23,-61.4,31.2,-55.4Z" transform="translate(100 100)" />
</svg>
