<svg width="506" height="58" viewBox="0 0 506 58" fill="none" xmlns="http://www.w3.org/2000/svg">
<path d="M28.2734 46.6953L24.4414 50.5625L0.816406 30.8398L24.4414 11.1172L28.2734 15.0195L9.11328 30.7695L28.2734 46.6953ZM74.3281 50H66.418L55.2383 31.4375L44.0234 50H36.2188L51.5117 26.5156L37.4492 4.05078H44.8672L55.3789 21.3477L65.9609 4.05078H73.168L59.0703 26.2344L74.3281 50ZM103.473 50L103.332 45.2539C101.41 47.1523 99.4531 48.5234 97.4609 49.3672C95.4922 50.2109 93.418 50.6328 91.2383 50.6328C89.2227 50.6328 87.5 50.375 86.0703 49.8594C84.6406 49.3438 83.457 48.6406 82.5195 47.75C81.6055 46.8359 80.9258 45.7695 80.4805 44.5508C80.0586 43.332 79.8477 42.0078 79.8477 40.5781C79.8477 37.0391 81.1602 34.2734 83.7852 32.2812C86.4336 30.2656 90.3359 29.2578 95.4922 29.2578H102.805V26.1641C102.805 24.0781 102.137 22.4141 100.801 21.1719C99.4648 19.9062 97.4258 19.2734 94.6836 19.2734C92.6914 19.2734 90.7227 19.4961 88.7773 19.9414C86.8555 20.3867 84.8633 21.0195 82.8008 21.8398V16.3203C83.5742 16.0391 84.4297 15.7695 85.3672 15.5117C86.3281 15.2305 87.3359 14.9844 88.3906 14.7734C89.4453 14.5625 90.5469 14.3984 91.6953 14.2812C92.8438 14.1406 94.0039 14.0703 95.1758 14.0703C97.3086 14.0703 99.2305 14.3047 100.941 14.7734C102.652 15.2422 104.094 15.957 105.266 16.918C106.461 17.8789 107.375 19.0859 108.008 20.5391C108.641 21.9922 108.957 23.7031 108.957 25.6719V50H103.473ZM102.805 33.9336H95.0352C93.5117 33.9336 92.1992 34.0859 91.0977 34.3906C89.9961 34.6953 89.0938 35.1289 88.3906 35.6914C87.6875 36.2539 87.1602 36.9336 86.8086 37.7305C86.4805 38.5039 86.3164 39.3828 86.3164 40.3672C86.3164 41.0469 86.4219 41.7031 86.6328 42.3359C86.8438 42.9453 87.1836 43.4961 87.6523 43.9883C88.1211 44.457 88.7305 44.832 89.4805 45.1133C90.2305 45.3945 91.1445 45.5352 92.2227 45.5352C93.6289 45.5352 95.2344 45.1133 97.0391 44.2695C98.8672 43.4023 100.789 42.043 102.805 40.1914V33.9336ZM120.383 14.7031H125.832L126.078 20.3984C127.109 19.1797 128.105 18.1719 129.066 17.375C130.027 16.5547 130.965 15.8984 131.879 15.4062C132.816 14.9141 133.766 14.5742 134.727 14.3867C135.688 14.1758 136.684 14.0703 137.715 14.0703C141.348 14.0703 144.09 15.1484 145.941 17.3047C147.816 19.4375 148.754 22.6602 148.754 26.9727V50H142.637V27.4648C142.637 24.6992 142.121 22.6602 141.09 21.3477C140.059 20.0117 138.523 19.3438 136.484 19.3438C135.734 19.3438 134.996 19.4609 134.27 19.6953C133.566 19.9062 132.828 20.293 132.055 20.8555C131.281 21.3945 130.438 22.1328 129.523 23.0703C128.633 24.0078 127.625 25.1797 126.5 26.5859V50H120.383V14.7031ZM158.176 33.0898C158.176 30.0898 158.586 27.4297 159.406 25.1094C160.227 22.7656 161.387 20.7969 162.887 19.2031C164.41 17.5859 166.227 16.3672 168.336 15.5469C170.469 14.7031 172.836 14.2812 175.438 14.2812C176.562 14.2812 177.664 14.3516 178.742 14.4922C179.844 14.6328 180.922 14.8555 181.977 15.1602V0.324219H188.129V50H182.645L182.434 43.3203C180.723 45.8047 178.871 47.6445 176.879 48.8398C174.887 50.0352 172.73 50.6328 170.41 50.6328C168.395 50.6328 166.613 50.2109 165.066 49.3672C163.543 48.5234 162.266 47.3398 161.234 45.8164C160.227 44.2695 159.465 42.418 158.949 40.2617C158.434 38.1055 158.176 35.7148 158.176 33.0898ZM164.434 32.7031C164.434 36.9688 165.055 40.1562 166.297 42.2656C167.562 44.3516 169.344 45.3945 171.641 45.3945C173.188 45.3945 174.816 44.7031 176.527 43.3203C178.262 41.9375 180.078 39.8867 181.977 37.168V20.7852C180.969 20.3164 179.855 19.9648 178.637 19.7305C177.418 19.4727 176.211 19.3438 175.016 19.3438C171.688 19.3438 169.086 20.4219 167.211 22.5781C165.359 24.7344 164.434 28.1094 164.434 32.7031ZM229.367 30.4883C229.367 31.3555 229.355 32.082 229.332 32.668C229.309 33.2539 229.273 33.8047 229.227 34.3203H204.441C204.441 37.9297 205.449 40.707 207.465 42.6523C209.48 44.5742 212.387 45.5352 216.184 45.5352C217.215 45.5352 218.246 45.5 219.277 45.4297C220.309 45.3359 221.305 45.2188 222.266 45.0781C223.227 44.9375 224.141 44.7852 225.008 44.6211C225.898 44.4336 226.719 44.2344 227.469 44.0234V49.0508C225.805 49.5195 223.918 49.8945 221.809 50.1758C219.723 50.4805 217.555 50.6328 215.305 50.6328C212.281 50.6328 209.68 50.2227 207.5 49.4023C205.32 48.582 203.527 47.3984 202.121 45.8516C200.738 44.2812 199.707 42.3711 199.027 40.1211C198.371 37.8477 198.043 35.2812 198.043 32.4219C198.043 29.9375 198.395 27.5938 199.098 25.3906C199.824 23.1641 200.867 21.2188 202.227 19.5547C203.609 17.8672 205.297 16.5312 207.289 15.5469C209.281 14.5625 211.543 14.0703 214.074 14.0703C216.535 14.0703 218.715 14.457 220.613 15.2305C222.512 16.0039 224.105 17.1055 225.395 18.5352C226.707 19.9414 227.691 21.6641 228.348 23.7031C229.027 25.7188 229.367 27.9805 229.367 30.4883ZM223.004 29.6094C223.074 28.0391 222.922 26.6094 222.547 25.3203C222.172 24.0078 221.586 22.8828 220.789 21.9453C220.016 21.0078 219.043 20.2812 217.871 19.7656C216.699 19.2266 215.34 18.957 213.793 18.957C212.457 18.957 211.238 19.2148 210.137 19.7305C209.035 20.2461 208.086 20.9727 207.289 21.9102C206.492 22.8477 205.848 23.9727 205.355 25.2852C204.863 26.5977 204.559 28.0391 204.441 29.6094H223.004ZM240.582 14.7031H246.172L246.348 21.207C248.434 18.6992 250.484 16.8828 252.5 15.7578C254.539 14.6328 256.59 14.0703 258.652 14.0703C262.309 14.0703 265.074 15.2539 266.949 17.6211C268.848 19.9883 269.727 23.5039 269.586 28.168H263.398C263.469 25.0742 263.012 22.8359 262.027 21.4531C261.066 20.0469 259.648 19.3438 257.773 19.3438C256.953 19.3438 256.121 19.4961 255.277 19.8008C254.457 20.082 253.602 20.5508 252.711 21.207C251.844 21.8398 250.918 22.6602 249.934 23.668C248.949 24.6758 247.895 25.8945 246.77 27.3242V50H240.582V14.7031ZM352.133 4.05078L336.523 50H328.086L312.828 4.05078H319.895L329.809 35.0234L332.621 44.0938L335.504 35.0234L345.453 4.05078H352.133ZM388.625 32.0703C388.625 34.8125 388.238 37.332 387.465 39.6289C386.691 41.9023 385.578 43.8594 384.125 45.5C382.672 47.1172 380.902 48.3828 378.816 49.2969C376.73 50.1875 374.363 50.6328 371.715 50.6328C369.184 50.6328 366.91 50.2461 364.895 49.4727C362.902 48.6758 361.203 47.5156 359.797 45.9922C358.414 44.4688 357.348 42.582 356.598 40.332C355.871 38.082 355.508 35.4922 355.508 32.5625C355.508 29.8203 355.895 27.3242 356.668 25.0742C357.441 22.8008 358.555 20.8555 360.008 19.2383C361.461 17.5977 363.23 16.332 365.316 15.4414C367.402 14.5273 369.77 14.0703 372.418 14.0703C374.949 14.0703 377.211 14.4688 379.203 15.2656C381.219 16.0391 382.918 17.1875 384.301 18.7109C385.707 20.2109 386.773 22.0859 387.5 24.3359C388.25 26.5859 388.625 29.1641 388.625 32.0703ZM382.367 32.3516C382.367 30.1719 382.121 28.2734 381.629 26.6562C381.16 25.0156 380.48 23.6562 379.59 22.5781C378.699 21.4766 377.609 20.6562 376.32 20.1172C375.055 19.5547 373.637 19.2734 372.066 19.2734C370.238 19.2734 368.668 19.6367 367.355 20.3633C366.066 21.0664 365 22.0156 364.156 23.2109C363.336 24.4062 362.727 25.8008 362.328 27.3945C361.953 28.9648 361.766 30.6172 361.766 32.3516C361.766 34.5312 362 36.4414 362.469 38.082C362.961 39.7227 363.652 41.0938 364.543 42.1953C365.434 43.2734 366.512 44.0938 367.777 44.6562C369.043 45.1953 370.473 45.4648 372.066 45.4648C373.895 45.4648 375.453 45.1133 376.742 44.4102C378.055 43.6836 379.121 42.7227 379.941 41.5273C380.785 40.332 381.395 38.9492 381.77 37.3789C382.168 35.7852 382.367 34.1094 382.367 32.3516ZM425.434 40.3672C425.434 41.6094 425.223 42.7227 424.801 43.707C424.379 44.6914 423.805 45.5703 423.078 46.3438C422.352 47.0938 421.508 47.7383 420.547 48.2773C419.586 48.8164 418.555 49.2617 417.453 49.6133C416.375 49.9648 415.262 50.2227 414.113 50.3867C412.965 50.5508 411.84 50.6328 410.738 50.6328C408.348 50.6328 406.145 50.5273 404.129 50.3164C402.137 50.1055 400.18 49.7656 398.258 49.2969V43.6719C400.32 44.2578 402.371 44.7031 404.41 45.0078C406.449 45.3125 408.477 45.4648 410.492 45.4648C413.422 45.4648 415.59 45.0664 416.996 44.2695C418.402 43.4727 419.105 42.3359 419.105 40.8594C419.105 40.2266 418.988 39.6641 418.754 39.1719C418.543 38.6562 418.145 38.1758 417.559 37.7305C416.973 37.2617 416.059 36.7812 414.816 36.2891C413.598 35.7969 411.922 35.2344 409.789 34.6016C408.195 34.1328 406.719 33.6055 405.359 33.0195C404.023 32.4102 402.863 31.6953 401.879 30.875C400.895 30.0547 400.121 29.0938 399.559 27.9922C398.996 26.8906 398.715 25.5898 398.715 24.0898C398.715 23.1055 398.938 22.0273 399.383 20.8555C399.852 19.6836 400.637 18.5938 401.738 17.5859C402.84 16.5781 404.328 15.7461 406.203 15.0898C408.078 14.4102 410.422 14.0703 413.234 14.0703C414.617 14.0703 416.152 14.1523 417.84 14.3164C419.527 14.457 421.285 14.7148 423.113 15.0898V20.5391C421.191 20.0703 419.363 19.7305 417.629 19.5195C415.918 19.2852 414.43 19.168 413.164 19.168C411.641 19.168 410.352 19.2852 409.297 19.5195C408.266 19.7539 407.422 20.082 406.766 20.5039C406.133 20.9023 405.676 21.3828 405.395 21.9453C405.113 22.4844 404.973 23.0703 404.973 23.7031C404.973 24.3359 405.09 24.9102 405.324 25.4258C405.582 25.9414 406.039 26.4453 406.695 26.9375C407.375 27.4062 408.312 27.8867 409.508 28.3789C410.703 28.8477 412.262 29.3633 414.184 29.9258C416.27 30.5352 418.027 31.1797 419.457 31.8594C420.887 32.5156 422.047 33.2539 422.938 34.0742C423.828 34.8945 424.461 35.8203 424.836 36.8516C425.234 37.8828 425.434 39.0547 425.434 40.3672ZM465.441 0.324219L441.324 57.5586H435.488L459.605 0.324219H465.441ZM478.379 15.0195L482.176 11.1172L505.801 30.8398L482.176 50.5625L478.379 46.6953L497.539 30.9102L478.379 15.0195Z" fill="black"/>
</svg>
