<svg xmlns="http://www.w3.org/2000/svg" viewBox="0 0 1440 320">
  <path fill="currentColor" fill-opacity="1" d="M0,64L40,96C80,128,160,192,240,192C320,192,400,128,480,133.3C560,139,640,213,720,240C800,267,880,245,960,234.7C1040,224,1120,224,1200,202.7C1280,181,1360,139,1400,117.3L1440,96L1440,320L1400,320C1360,320,1280,320,1200,320C1120,320,1040,320,960,320C880,320,800,320,720,320C640,320,560,320,480,320C400,320,320,320,240,320C160,320,80,320,40,320L0,320Z" style="--darkreader-inline-fill:#007acc;" data-darkreader-inline-fill=""></path>
</svg>